<?xml version="1.0" standalone="no"?>
<!DOCTYPE svg PUBLIC "-//W3C//DTD SVG 20010904//EN"
 "http://www.w3.org/TR/2001/REC-SVG-20010904/DTD/svg10.dtd">
<svg version="1.0" xmlns="http://www.w3.org/2000/svg"
 width="305.000000pt" height="305.000000pt" viewBox="0 0 305.000000 305.000000"
 preserveAspectRatio="xMidYMid meet">
<metadata>
Created by potrace 1.14, written by Peter Selinger 2001-2017
</metadata>
<g transform="translate(0.000000,305.000000) scale(0.100000,-0.100000)"
fill="#000000" stroke="none">
<path d="M300 3035 c0 -8 5 -15 10 -15 6 0 10 7 10 15 0 8 -4 15 -10 15 -5 0
-10 -7 -10 -15z"/>
<path d="M472 3038 c7 -20 48 -23 48 -4 0 11 -9 16 -26 16 -16 0 -24 -5 -22
-12z"/>
<path d="M880 3035 c8 -10 9 -15 2 -15 -6 0 -9 -7 -6 -15 10 -24 -13 -17 -33
11 -12 16 -24 23 -34 19 -14 -5 -13 -11 5 -50 17 -36 26 -44 48 -45 17 0 31
-8 38 -20 6 -11 17 -20 25 -20 7 0 17 -9 20 -20 3 -11 10 -20 15 -20 5 0 24
-16 43 -35 33 -34 73 -52 48 -21 -9 11 -9 16 -1 21 7 5 -2 17 -24 33 -37 26
-43 36 -26 47 6 3 10 13 10 21 0 10 -5 12 -12 7 -20 -12 -40 -13 -60 -2 -15 8
-16 14 -8 29 6 11 8 20 4 20 -4 0 1 9 11 20 18 20 17 20 -9 20 -15 0 -29 7
-32 15 -4 8 -13 15 -21 15 -13 0 -13 -3 -3 -15z"/>
<path d="M1322 3038 c2 -7 -6 -13 -19 -13 -11 0 -25 -3 -29 -7 -4 -5 2 -8 14
-8 11 0 37 -10 57 -21 26 -16 39 -19 47 -11 8 8 8 15 -1 26 -6 7 -10 20 -9 27
2 9 -9 15 -30 17 -23 2 -32 -1 -30 -10z"/>
<path d="M1674 3020 c-4 -16 -10 -30 -15 -30 -4 0 -11 -10 -14 -21 -9 -27 -25
-6 -18 22 4 13 0 19 -11 19 -9 0 -18 -12 -22 -27 -4 -16 -10 -32 -13 -38 -4
-5 -13 -28 -20 -50 -8 -22 -25 -55 -39 -72 -20 -28 -22 -33 -8 -33 10 0 16 -7
14 -17 -2 -10 4 -19 15 -21 11 -2 17 3 17 16 0 11 6 22 14 25 12 5 13 0 4 -26
-6 -18 -21 -45 -33 -62 -12 -16 -25 -40 -29 -52 -4 -13 -12 -23 -17 -23 -5 0
-9 -9 -9 -19 0 -11 -4 -22 -9 -25 -5 -3 -8 -42 -6 -86 2 -46 -1 -78 -6 -74 -5
3 -9 -8 -9 -24 0 -24 6 -32 30 -41 17 -5 30 -14 30 -20 0 -5 8 -17 17 -27 10
-9 18 -31 19 -49 1 -27 -2 -31 -21 -27 -19 3 -21 -1 -21 -32 1 -20 4 -36 9
-36 4 0 7 5 7 10 0 6 6 5 14 -2 17 -16 11 -29 -11 -21 -14 5 -15 0 -10 -35 4
-31 2 -42 -8 -42 -8 0 -16 4 -20 10 -10 16 -83 -63 -74 -80 8 -17 -11 -50 -29
-50 -6 0 -16 -8 -21 -17 -9 -15 -12 -16 -20 -4 -14 21 -71 -11 -123 -69 -22
-25 -52 -50 -67 -57 -14 -6 -20 -12 -13 -12 6 -1 12 -6 12 -12 0 -5 -4 -7 -10
-4 -5 3 -10 1 -10 -6 0 -8 -4 -8 -15 1 -12 10 -15 10 -15 -4 0 -11 -9 -16 -26
-16 -24 0 -25 -3 -21 -35 3 -20 10 -41 15 -48 8 -10 6 -13 -9 -14 -23 -2 -60
-43 -51 -58 12 -19 9 -46 -4 -41 -8 3 -11 0 -7 -10 3 -7 2 -21 -1 -31 -6 -14
-8 -14 -20 3 -8 10 -12 22 -10 25 8 13 -35 -3 -47 -17 -9 -11 -9 -14 1 -14 10
0 10 -3 1 -14 -6 -8 -10 -20 -9 -27 2 -7 -3 -13 -10 -14 -7 0 -23 -18 -35 -40
-12 -22 -26 -43 -31 -46 -5 -4 0 -13 11 -20 17 -10 19 -17 12 -42 -5 -17 -5
-35 0 -41 5 -6 11 -28 15 -48 6 -35 5 -38 -16 -39 l-23 0 22 -9 c17 -7 21 -15
17 -35 -3 -19 1 -27 17 -34 15 -5 18 -10 11 -15 -17 -10 -15 -43 4 -50 9 -3
20 -4 25 -1 13 8 67 -22 79 -45 6 -10 16 -17 24 -14 14 6 30 -22 20 -37 -3 -5
-15 -9 -27 -9 -12 0 -29 -4 -37 -10 -12 -7 -12 -12 0 -34 7 -14 16 -26 20 -26
3 0 15 -6 25 -14 15 -11 17 -17 7 -28 -10 -12 -8 -19 9 -34 21 -19 22 -19 36
3 16 24 38 30 48 13 9 -15 -13 -40 -29 -34 -19 7 -27 -22 -10 -36 8 -7 14 -18
14 -26 0 -7 11 -25 25 -40 13 -14 22 -30 20 -35 -3 -4 -1 -10 5 -14 5 -3 10
-2 10 4 0 11 23 4 57 -18 l21 -15 -23 -18 c-29 -22 -41 -23 -49 -1 -6 14 -9
15 -20 2 -7 -8 -16 -26 -20 -41 -5 -23 -3 -26 11 -21 13 5 15 2 10 -11 -4 -10
-7 -21 -7 -25 0 -4 -9 -17 -20 -28 -19 -21 -19 -22 10 -75 17 -29 39 -72 51
-94 11 -23 28 -44 38 -47 24 -6 16 -72 -11 -91 -11 -8 -15 -15 -8 -18 7 -2 -5
-28 -29 -63 l-41 -60 841 -3 c614 -1 845 1 855 9 10 8 14 8 14 0 0 -7 31 -11
95 -11 l95 0 0 60 c0 33 -4 60 -10 60 -5 0 -10 -6 -10 -13 0 -8 -12 -14 -29
-15 -27 -1 -28 1 -22 31 8 37 38 48 58 21 12 -17 13 -16 13 4 0 15 -6 22 -19
22 -28 0 -35 17 -18 44 11 16 13 26 5 34 -7 7 -4 16 11 28 25 22 30 67 6 58
-9 -4 -15 0 -15 10 0 9 -5 16 -11 16 -5 0 -7 -5 -4 -10 3 -6 1 -10 -4 -10 -6
0 -11 9 -11 20 0 14 -5 18 -17 13 -14 -5 -14 -2 3 15 12 11 24 25 25 31 2 5
11 11 19 13 22 5 29 26 29 94 1 38 -4 66 -11 72 -16 12 -107 7 -121 -7 -7 -7
-14 -2 -24 16 -16 31 -12 38 15 24 11 -6 34 -8 51 -5 21 5 31 3 31 -6 0 -26
29 12 36 46 3 19 10 34 15 34 5 0 9 31 9 70 l0 70 -26 -10 c-15 -6 -41 -10
-58 -9 -17 1 -48 -7 -68 -19 -21 -12 -43 -20 -50 -18 -7 1 -10 1 -5 -2 4 -2
-4 -13 -18 -24 -31 -24 -78 -21 -83 6 -3 16 1 18 24 13 35 -6 60 14 35 30 -18
12 -28 83 -11 83 15 0 12 20 -2 20 -21 1 -47 44 -34 55 22 20 44 16 50 -9 8
-31 51 -43 75 -21 37 33 46 17 24 -41 -4 -12 66 -29 101 -26 10 1 25 -3 32 -9
12 -10 14 11 14 125 0 78 -4 136 -9 136 -6 0 -11 -14 -13 -32 -2 -17 -9 -34
-17 -36 -10 -3 -12 0 -8 12 4 10 7 33 7 51 0 28 3 32 20 28 19 -5 20 0 20 136
0 136 -1 141 -21 141 -11 0 -17 4 -14 10 3 5 0 10 -7 11 -7 0 -5 4 6 8 18 7
18 8 1 25 -13 13 -31 17 -66 15 -55 -3 -72 7 -47 25 12 9 38 12 78 9 38 -3 60
-1 60 5 0 17 -14 22 -64 23 -25 1 -46 6 -46 11 0 4 -7 8 -16 8 -13 0 -14 -3
-5 -14 10 -12 8 -13 -8 -9 -24 6 -28 38 -6 47 8 3 30 3 48 0 24 -4 28 -3 17 5
-16 11 -15 12 40 16 19 2 38 3 43 4 4 1 7 34 7 75 0 60 -4 78 -17 88 -30 22
-40 51 -32 88 4 20 4 36 -2 38 -5 2 -9 8 -9 13 0 6 4 8 9 5 5 -4 7 3 4 14 -4
15 -14 20 -39 20 -27 0 -36 6 -49 31 -25 48 -49 66 -101 77 -53 12 -66 9 -57
-13 8 -23 -13 -18 -75 17 -82 45 -105 61 -119 79 -7 9 -25 19 -41 22 -28 6
-39 21 -60 85 -8 26 -8 34 2 38 19 7 122 -24 136 -40 12 -16 49 -10 46 7 -5
29 -28 55 -68 75 -24 13 -61 38 -83 57 -36 31 -38 36 -22 45 23 15 22 27 -9
55 -15 14 -24 31 -21 39 7 17 -11 36 -34 36 -19 0 -74 74 -65 89 4 6 -9 13
-29 17 -19 3 -35 10 -35 14 0 5 9 6 20 3 16 -4 20 0 20 20 0 16 6 27 17 29 11
2 18 13 18 28 0 15 6 25 15 25 8 0 14 -6 12 -13 -2 -11 18 -17 42 -13 6 1 20
0 32 -3 16 -4 21 -11 17 -26 -3 -11 0 -20 6 -20 7 0 22 -10 34 -21 12 -12 16
-19 10 -15 -7 4 -13 2 -13 -4 0 -6 8 -13 18 -17 17 -6 92 -81 92 -92 0 -4 -9
-12 -20 -19 -11 -7 -20 -18 -20 -25 0 -17 51 -35 75 -26 12 4 30 1 45 -9 14
-9 45 -16 69 -16 39 -1 45 -4 46 -25 2 -26 37 -59 43 -41 5 13 32 13 32 1 0
-6 -5 -13 -10 -16 -13 -8 6 -45 24 -45 7 0 36 -24 65 -53 29 -30 59 -54 67
-54 19 0 21 423 2 430 -10 4 -10 6 0 6 9 1 12 45 12 186 l0 185 -685 0 -685 0
-6 -30z m646 -108 c0 -8 -1 -13 -3 -11 -1 2 -9 12 -16 22 -12 15 -12 17 3 11
9 -3 16 -13 16 -22z m642 -130 c11 -13 10 -14 -12 -7 -14 4 -31 13 -38 20 -11
10 -9 12 12 8 14 -3 31 -12 38 -21z m-402 -103 c0 -6 -4 -7 -10 -4 -5 3 -10
11 -10 16 0 6 5 7 10 4 6 -3 10 -11 10 -16z m-110 -235 c0 -9 -44 14 -48 25
-3 8 5 7 22 -4 14 -10 26 -19 26 -21z m-956 -64 c-6 -6 -10 -3 -10 10 0 13 4
16 10 10 7 -7 7 -13 0 -20z m352 -170 c15 0 24 -6 24 -15 0 -8 -5 -15 -12 -15
-15 0 -48 30 -47 44 0 6 3 6 6 -1 2 -7 16 -13 29 -13z m756 -133 c-2 -11 2
-15 12 -11 17 7 86 -57 86 -80 0 -23 -69 -13 -87 13 -10 15 -21 20 -35 15 -13
-4 -26 1 -39 15 -10 11 -19 22 -19 25 0 8 65 46 75 42 6 -2 9 -10 7 -19z
m-857 -5 c5 0 12 -6 15 -14 3 -7 12 -13 20 -13 9 0 14 -7 13 -17 -2 -10 -4
-26 -5 -35 -2 -11 3 -17 10 -15 8 1 11 -2 7 -8 -3 -5 3 -10 14 -10 12 0 21 -5
21 -11 0 -5 -5 -7 -11 -4 -6 4 -17 -1 -25 -11 -13 -18 -14 -18 -20 3 -5 17
-12 21 -28 17 -11 -2 -31 -6 -44 -7 -15 -1 -22 -7 -19 -17 2 -10 12 -14 30
-13 15 1 27 -2 27 -8 0 -5 -13 -9 -29 -9 -32 0 -51 -18 -32 -29 6 -4 27 -7 46
-6 34 1 35 0 32 -40 -2 -33 -6 -41 -24 -43 -13 -2 -23 -7 -23 -12 0 -5 -3 -17
-6 -27 -4 -13 -1 -12 14 6 15 18 21 21 27 10 5 -8 4 -14 -4 -17 -11 -4 -11 -6
0 -13 10 -6 11 -9 2 -9 -7 0 -13 -9 -13 -19 0 -11 -4 -23 -10 -26 -5 -3 -10
-11 -10 -16 0 -6 5 -7 12 -3 7 5 8 3 3 -5 -5 -9 -10 -10 -18 -2 -6 6 -20 11
-32 11 -22 -1 -58 -24 -49 -32 3 -3 -8 -9 -23 -13 -17 -4 -29 -2 -31 4 -2 6
-17 11 -33 11 -16 0 -29 5 -29 11 0 7 10 9 25 7 33 -7 49 14 42 56 -4 23 1 43
13 64 17 28 17 31 3 34 -15 3 -15 4 0 19 15 15 13 16 -28 14 -48 -4 -58 7 -24
25 16 9 18 14 8 26 -9 11 -8 14 4 14 9 0 19 9 22 20 3 11 10 20 15 20 4 0 18
21 31 47 30 63 69 104 89 93 8 -4 19 -8 25 -8z m1061 -12 c8 0 14 -4 14 -10 0
-16 -36 -11 -51 7 -12 15 -12 16 4 10 10 -4 25 -7 33 -7z m-1276 -25 c-7 -8
-17 -15 -23 -15 -5 0 -2 9 8 20 21 23 35 19 15 -5z m-40 -1 c0 -8 -32 -33 -43
-34 -4 0 -3 9 3 20 10 18 40 29 40 14z m1304 -84 c28 0 4 -23 -26 -26 -30 -2
-44 6 -27 17 11 7 11 9 -1 9 -13 0 -13 1 0 10 9 6 18 6 24 0 6 -6 19 -10 30
-10z m-280 -15 c20 -14 42 -25 49 -26 7 0 2 -5 -10 -11 -25 -12 -32 -31 -8
-22 8 4 21 2 28 -3 13 -11 89 -9 107 2 5 3 7 11 4 17 -5 8 -1 9 11 5 9 -4 23
-3 30 3 10 8 17 6 27 -8 9 -14 19 -17 33 -11 11 4 16 8 11 8 -5 1 -3 7 4 15
15 19 40 9 40 -15 0 -13 7 -19 24 -19 14 0 31 -6 38 -13 7 -8 20 -16 28 -20
11 -4 10 -7 -7 -12 -35 -11 -37 -35 -3 -35 20 0 30 -5 30 -15 0 -8 6 -15 13
-15 6 0 -1 -7 -17 -15 -15 -8 -37 -15 -47 -15 -17 0 -17 -2 -3 -36 26 -61 3
-80 -58 -48 -20 10 -33 12 -37 6 -3 -6 -18 -13 -33 -17 -16 -4 -25 -12 -22
-20 3 -6 -7 -26 -22 -44 l-26 -32 26 -24 c14 -13 26 -28 26 -34 0 -16 -89 -71
-116 -71 -18 0 -24 5 -24 22 0 13 -18 41 -41 64 l-42 42 27 27 c38 38 35 63
-9 62 -43 -1 -71 21 -37 29 27 8 27 10 4 38 -13 17 -23 21 -38 15 -31 -11 -37
-37 -14 -61 16 -17 17 -24 8 -36 -9 -10 -13 -11 -16 -2 -3 9 -6 9 -13 -1 -5
-9 -10 -4 -15 17 -4 16 -13 38 -20 49 -12 17 -14 17 -14 2 0 -9 -7 -17 -15
-17 -10 0 -15 11 -15 35 0 19 4 35 10 35 5 0 13 18 16 40 8 48 32 65 79 56 18
-4 40 -4 49 0 21 8 21 34 -1 34 -14 0 -15 2 -4 9 16 10 6 31 -15 31 -8 0 -14
4 -14 9 0 5 -9 11 -20 14 -25 7 -26 37 -1 37 10 0 35 -11 55 -25z m159 9 c13
-13 -7 -34 -32 -33 -14 0 -20 3 -13 6 10 4 10 8 1 19 -9 11 -7 14 13 14 14 0
27 -3 31 -6z m-255 -101 c-10 -2 -18 -9 -18 -14 0 -5 -4 -9 -10 -9 -5 0 -7 7
-4 15 4 8 16 14 28 14 16 -1 17 -2 4 -6z m-872 -73 c9 0 14 -11 14 -29 0 -22
-6 -30 -25 -35 -14 -4 -25 -11 -25 -16 0 -15 -21 -12 -41 6 -16 14 -18 13 -24
-18 -3 -18 -11 -43 -17 -55 -13 -26 3 -53 33 -53 23 0 32 -15 24 -41 -5 -14
-14 -20 -33 -19 -53 4 -57 1 -59 -38 -2 -28 0 -34 8 -22 8 11 12 12 16 3 2 -7
16 -13 29 -13 24 0 32 -14 15 -25 -6 -3 -4 -17 5 -33 7 -15 14 -33 14 -39 0
-7 8 -13 19 -13 30 0 105 -96 113 -144 17 -104 4 -128 -46 -88 -16 12 -20 24
-16 41 7 31 -28 75 -47 59 -7 -6 -20 -7 -30 -4 -9 4 -19 2 -23 -4 -4 -7 -15
-3 -30 10 -20 17 -22 23 -10 30 15 9 16 9 -36 25 -8 3 -12 9 -9 15 3 5 1 10
-4 10 -6 0 -11 -4 -11 -8 0 -15 -73 -12 -115 4 -22 8 -54 16 -70 18 -17 2 -33
4 -37 5 -5 0 -8 12 -8 26 0 14 -4 25 -10 25 -5 0 -10 17 -10 39 0 41 33 100
76 134 14 10 23 26 22 35 -2 10 3 16 10 14 8 -1 11 2 8 7 -10 15 14 25 62 26
43 1 65 16 55 41 -8 22 40 94 63 94 7 0 10 8 7 19 -6 22 21 51 48 51 10 0 19
5 19 11 0 6 14 -3 31 -20 17 -17 37 -31 45 -31z m39 10 c-3 -5 -10 -10 -16
-10 -5 0 -9 5 -9 10 0 6 7 10 16 10 8 0 12 -4 9 -10z m-478 -75 c0 -8 -4 -15
-8 -15 -4 0 -9 7 -13 15 -3 9 0 15 8 15 7 0 13 -7 13 -15z m1933 -49 c0 -3 -4
-8 -10 -11 -5 -3 -10 -1 -10 4 0 6 5 11 10 11 6 0 10 -2 10 -4z m-1927 -90 c4
-9 -3 -16 -20 -21 -31 -7 -56 11 -33 25 22 14 47 12 53 -4z m1762 -56 c3 -5
-1 -10 -9 -10 -9 0 -16 5 -16 10 0 6 4 10 9 10 6 0 13 -4 16 -10z m-431 -36
c4 -10 1 -14 -6 -12 -15 5 -23 28 -10 28 5 0 13 -7 16 -16z m16 -44 c0 -5 -4
-10 -10 -10 -5 0 -10 5 -10 10 0 6 5 10 10 10 6 0 10 -4 10 -10z m248 -83 c4
-18 -22 -50 -32 -40 -11 11 -6 34 6 27 8 -5 9 0 5 15 -3 14 -1 21 6 18 7 -2
13 -11 15 -20z m332 -47 c0 -5 -8 -10 -17 -10 -15 0 -16 2 -3 10 19 12 20 12
20 0z m-290 -109 c0 -12 -20 -25 -27 -18 -7 7 6 27 18 27 5 0 9 -4 9 -9z m-65
-85 c-1 -70 -7 -85 -28 -67 -8 6 -21 9 -28 6 -23 -8 -43 11 -34 31 4 11 7 29
6 42 -2 17 3 22 23 22 14 0 28 5 31 10 4 6 11 8 16 5 5 -4 9 -1 9 4 0 6 1 11
3 11 1 0 2 -29 2 -64z m-1477 -78 c17 -21 3 -61 -19 -55 -11 3 -19 -2 -22 -15
-3 -11 -10 -17 -16 -13 -14 8 -14 42 0 51 8 5 8 9 -1 14 -9 6 -9 12 1 28 13
21 33 18 57 -10z m1512 -9 c0 -6 -4 -7 -10 -4 -5 3 -10 11 -10 16 0 6 5 7 10
4 6 -3 10 -11 10 -16z m-1520 -84 c0 -8 -9 -19 -20 -25 -15 -8 -20 -8 -20 3 0
14 19 37 32 37 4 0 8 -7 8 -15z m1460 4 c0 -4 -6 -9 -12 -12 -10 -3 -10 -7 -1
-17 8 -9 9 -20 2 -37 -5 -14 -7 -29 -3 -34 21 -35 -44 -107 -70 -78 -8 9 -6
10 7 6 9 -4 17 -2 17 3 0 5 -16 14 -34 21 -39 14 -39 33 0 23 19 -5 24 -2 24
14 0 11 11 29 25 40 27 21 33 36 13 30 -9 -3 -38 32 -38 46 0 5 70 1 70 -5z
m246 -184 c-8 -8 -24 -15 -37 -15 -18 0 -19 2 -9 15 7 8 23 15 37 15 22 0 23
-2 9 -15z m-526 -45 c0 -5 -4 -10 -10 -10 -5 0 -10 5 -10 10 0 6 5 10 10 10 6
0 10 -4 10 -10z m411 -48 c5 -26 3 -35 -14 -47 -28 -19 -51 -19 -68 1 -11 14
-10 19 7 33 11 9 23 24 27 34 11 29 40 16 48 -21z m-195 -7 c4 -8 12 -15 19
-15 24 0 36 -26 25 -54 -18 -49 -68 -41 -56 9 3 10 -2 27 -11 37 -9 10 -12 18
-7 18 5 0 2 5 -6 10 -12 8 -11 10 8 10 12 0 25 -7 28 -15z m-1095 -108 c52
-18 64 -26 61 -41 -3 -15 -10 -17 -35 -12 -18 4 -33 11 -35 16 -2 6 -10 10
-17 10 -29 0 -114 34 -120 47 -7 20 54 11 146 -20z m1034 -7 c3 -5 -1 -10 -9
-10 -9 0 -16 5 -16 10 0 6 4 10 9 10 6 0 13 -4 16 -10z m107 -48 c-6 -2 -12
-8 -12 -14 0 -5 9 -6 21 -3 15 5 19 4 15 -4 -17 -27 -90 6 -79 35 3 10 12 10
36 1 17 -6 26 -12 19 -15z m258 8 c0 -5 -4 -10 -10 -10 -5 0 -10 5 -10 10 0 6
5 10 10 10 6 0 10 -4 10 -10z m-544 -25 c-4 -10 1 -15 17 -16 21 0 21 -1 2 -8
-11 -5 -28 -4 -38 1 -18 9 -18 10 0 23 23 18 26 18 19 0z m424 5 c0 -5 -4 -10
-10 -10 -5 0 -10 5 -10 10 0 6 5 10 10 10 6 0 10 -4 10 -10z m-365 -10 c3 -5
1 -10 -4 -10 -6 0 -11 5 -11 10 0 6 2 10 4 10 3 0 8 -4 11 -10z m-815 -20 c0
-5 -4 -10 -10 -10 -5 0 -10 5 -10 10 0 6 5 10 10 10 6 0 10 -4 10 -10z m1056
-80 c9 -9 41 -15 97 -19 14 -2 8 -61 -7 -61 -18 0 -39 27 -31 40 6 9 -16 15
-39 11 -22 -5 -56 10 -56 24 0 17 21 20 36 5z m214 -310 c0 -5 -2 -10 -4 -10
-3 0 -8 5 -11 10 -3 6 -1 10 4 10 6 0 11 -4 11 -10z"/>
<path d="M1730 1980 c8 -5 20 -10 25 -10 6 0 3 5 -5 10 -8 5 -19 10 -25 10 -5
0 -3 -5 5 -10z"/>
<path d="M2720 1880 c0 -5 7 -10 15 -10 8 0 15 5 15 10 0 6 -7 10 -15 10 -8 0
-15 -4 -15 -10z"/>
<path d="M2870 1820 c0 -5 5 -10 11 -10 5 0 7 5 4 10 -3 6 -8 10 -11 10 -2 0
-4 -4 -4 -10z"/>
<path d="M1295 1420 c3 -5 8 -10 11 -10 2 0 4 5 4 10 0 6 -5 10 -11 10 -5 0
-7 -4 -4 -10z"/>
<path d="M1630 3030 c0 -5 4 -10 9 -10 6 0 13 5 16 10 3 6 -1 10 -9 10 -9 0
-16 -4 -16 -10z"/>
<path d="M330 3020 c0 -5 5 -10 10 -10 6 0 10 5 10 10 0 6 -4 10 -10 10 -5 0
-10 -4 -10 -10z"/>
<path d="M1062 2998 c3 -7 13 -15 24 -17 16 -3 17 -1 5 13 -16 19 -34 21 -29
4z"/>
<path d="M1230 2990 c0 -5 5 -10 11 -10 5 0 7 5 4 10 -3 6 -8 10 -11 10 -2 0
-4 -4 -4 -10z"/>
<path d="M1175 2960 c3 -5 8 -10 11 -10 2 0 4 5 4 10 0 6 -5 10 -11 10 -5 0
-7 -4 -4 -10z"/>
<path d="M1200 2943 c1 -21 15 -30 27 -18 10 10 9 14 -3 19 -20 8 -24 8 -24
-1z"/>
<path d="M555 2930 c3 -5 8 -10 11 -10 2 0 4 5 4 10 0 6 -5 10 -11 10 -5 0 -7
-4 -4 -10z"/>
<path d="M1105 2920 c-16 -18 -17 -23 -5 -45 7 -14 16 -23 18 -20 3 3 11 0 17
-5 20 -17 27 17 10 56 -8 19 -16 34 -18 34 -2 0 -12 -9 -22 -20z"/>
<path d="M29 2889 c21 -22 44 -18 34 6 -3 8 -16 15 -29 15 -25 0 -25 0 -5 -21z"/>
<path d="M580 2885 c7 -8 19 -15 26 -15 8 0 14 -4 14 -10 0 -5 5 -10 10 -10 6
0 10 7 10 15 0 8 -9 15 -19 15 -11 0 -23 5 -26 10 -3 6 -11 10 -17 10 -7 0 -6
-6 2 -15z"/>
<path d="M765 2871 c-6 -11 25 -31 48 -31 8 0 21 -8 29 -17 15 -17 58 -89 58
-97 0 -2 -20 -11 -45 -20 -48 -19 -61 -39 -20 -32 16 3 32 -2 43 -13 17 -19
102 -34 102 -18 0 5 -7 15 -15 23 -8 9 -15 21 -15 29 0 20 33 28 46 11 14 -20
38 -21 30 -1 -3 8 -1 15 4 15 6 0 10 -4 10 -10 0 -5 12 -10 27 -10 25 0 24 2
-21 37 -26 20 -45 41 -43 48 3 6 -7 12 -24 13 -20 2 -29 -2 -29 -12 0 -8 -5
-18 -12 -22 -14 -9 -58 44 -51 63 3 7 -2 13 -11 13 -9 0 -16 4 -16 10 0 5 -7
7 -15 4 -8 -3 -24 1 -37 10 -26 18 -35 20 -43 7z"/>
<path d="M200 2853 c0 -23 15 -39 23 -26 3 5 -1 17 -9 28 -14 18 -14 18 -14
-2z"/>
<path d="M175 2820 c-3 -6 1 -13 10 -16 19 -8 30 0 20 15 -8 14 -22 14 -30 1z"/>
<path d="M1110 2820 c10 -6 11 -10 3 -10 -7 0 -13 -7 -13 -15 0 -8 -3 -14 -7
-14 -22 4 -33 -3 -33 -19 0 -44 42 -34 59 14 13 35 8 54 -12 54 -7 0 -6 -4 3
-10z"/>
<path d="M710 2801 c0 -5 -13 -14 -30 -20 -16 -5 -30 -15 -30 -20 0 -13 27
-14 35 -2 3 5 19 12 36 16 24 6 28 9 18 21 -13 16 -29 19 -29 5z"/>
<path d="M210 2776 c0 -8 -9 -20 -19 -26 -12 -6 -17 -17 -14 -28 4 -15 13 -19
45 -16 51 3 59 12 31 31 -13 9 -23 21 -23 29 0 7 -4 16 -10 19 -5 3 -10 -1
-10 -9z"/>
<path d="M95 2730 c-4 -6 -11 -8 -16 -5 -15 10 -10 -15 6 -32 18 -17 20 -16
29 14 7 22 -8 41 -19 23z"/>
<path d="M765 2730 c-3 -6 1 -7 9 -4 18 7 21 14 7 14 -6 0 -13 -4 -16 -10z"/>
<path d="M782 2708 c5 -15 28 -18 29 -3 0 6 -7 12 -17 13 -10 3 -15 -1 -12
-10z"/>
<path d="M2 2655 c-1 -16 5 -39 13 -49 14 -19 15 -19 15 7 0 15 -4 27 -9 27
-5 0 -12 10 -14 23 -3 17 -5 15 -5 -8z"/>
<path d="M40 2609 c0 -5 5 -7 10 -4 6 3 10 8 10 11 0 2 -4 4 -10 4 -5 0 -10
-5 -10 -11z"/>
<path d="M1010 2610 c0 -5 -9 -18 -21 -29 l-21 -19 21 -11 c26 -14 27 -31 4
-31 -15 0 -15 -2 -4 -9 9 -6 21 -3 34 10 12 10 27 19 34 19 7 0 13 8 13 19 0
10 7 24 15 31 8 7 13 16 10 19 -6 11 -85 12 -85 1z"/>
<path d="M767 2591 c-3 -14 0 -19 13 -18 11 1 15 7 12 19 -6 24 -18 23 -25 -1z"/>
<path d="M712 2568 c5 -15 28 -18 29 -3 0 6 -7 12 -17 13 -10 3 -15 -1 -12
-10z"/>
<path d="M840 2570 c0 -5 5 -10 10 -10 6 0 10 5 10 10 0 6 -4 10 -10 10 -5 0
-10 -4 -10 -10z"/>
<path d="M886 2526 c-40 -13 -61 -36 -32 -36 8 0 20 -9 26 -20 6 -11 15 -18
21 -15 5 4 22 -3 38 -14 30 -22 51 -13 51 21 0 15 -54 81 -63 77 -1 -1 -20 -7
-41 -13z"/>
<path d="M1216 2502 c-3 -6 3 -12 15 -15 12 -3 19 -1 16 6 -5 15 -24 20 -31 9z"/>
<path d="M423 2446 c7 -15 16 -21 21 -16 6 6 4 15 -4 25 -19 23 -29 18 -17 -9z"/>
<path d="M1067 2459 c6 -6 9 -18 6 -25 -3 -8 3 -17 13 -20 11 -4 26 -13 34
-20 19 -16 70 -29 70 -18 0 5 -18 19 -40 32 -22 12 -40 27 -40 32 0 6 -7 10
-15 10 -8 0 -15 5 -15 10 0 6 -5 10 -12 10 -9 0 -9 -3 -1 -11z"/>
<path d="M730 2450 c0 -5 5 -10 10 -10 6 0 10 5 10 10 0 6 -4 10 -10 10 -5 0
-10 -4 -10 -10z"/>
<path d="M820 2435 c-8 -9 -10 -28 -6 -50 7 -33 14 -40 45 -35 17 2 59 40 44
40 -6 0 -16 14 -22 30 -11 33 -40 40 -61 15z"/>
<path d="M1074 2389 c-3 -6 -2 -15 3 -20 5 -5 9 -1 10 11 2 22 -2 25 -13 9z"/>
<path d="M0 2371 c0 -29 23 -43 45 -27 17 12 17 14 -6 29 -30 22 -39 21 -39
-2z"/>
<path d="M690 2361 c0 -5 6 -12 13 -15 7 -3 6 -5 -3 -3 -21 3 -21 -14 0 -40
15 -19 20 -20 29 -9 6 7 22 11 35 9 13 -3 27 1 31 8 6 9 2 11 -12 7 -15 -4
-27 3 -42 23 -21 28 -51 39 -51 20z"/>
<path d="M893 2333 c-17 -6 -16 -33 1 -33 20 0 40 26 24 32 -7 3 -19 3 -25 1z"/>
<path d="M456 2306 c7 -19 38 -22 32 -3 -3 6 -12 13 -21 15 -12 2 -15 -1 -11
-12z"/>
<path d="M355 2300 c-3 -5 1 -10 10 -10 9 0 13 5 10 10 -3 6 -8 10 -10 10 -2
0 -7 -4 -10 -10z"/>
<path d="M610 2281 c0 -11 26 -22 34 -14 12 12 5 23 -14 23 -11 0 -20 -4 -20
-9z"/>
<path d="M20 2270 c0 -5 5 -10 11 -10 5 0 7 5 4 10 -3 6 -8 10 -11 10 -2 0 -4
-4 -4 -10z"/>
<path d="M30 2220 c0 -5 5 -10 10 -10 6 0 10 5 10 10 0 6 -4 10 -10 10 -5 0
-10 -4 -10 -10z"/>
<path d="M1202 2173 c2 -22 9 -29 28 -30 l25 -3 -22 12 c-13 6 -23 15 -23 19
0 16 21 20 38 7 15 -12 16 -11 3 5 -7 9 -22 17 -33 17 -15 0 -19 -6 -16 -27z"/>
<path d="M780 2170 c0 -5 7 -7 15 -4 9 4 15 0 15 -10 0 -9 4 -16 9 -16 5 0 7
9 4 20 -5 20 -43 29 -43 10z"/>
<path d="M305 2160 c3 -5 11 -10 16 -10 6 0 7 5 4 10 -3 6 -11 10 -16 10 -6 0
-7 -4 -4 -10z"/>
<path d="M663 2163 c-15 -5 -17 -23 -4 -23 5 0 11 7 15 15 3 8 4 15 3 14 -1 0
-8 -3 -14 -6z"/>
<path d="M235 2140 c-8 -13 5 -13 25 0 13 8 13 10 -2 10 -9 0 -20 -4 -23 -10z"/>
<path d="M1107 2124 c-4 -4 12 -22 35 -40 44 -34 64 -39 31 -7 -42 40 -60 53
-66 47z"/>
<path d="M795 2090 c3 -5 10 -10 16 -10 5 0 9 5 9 10 0 6 -7 10 -16 10 -8 0
-12 -4 -9 -10z"/>
<path d="M950 2060 c0 -5 7 -10 15 -10 8 0 15 5 15 10 0 6 -7 10 -15 10 -8 0
-15 -4 -15 -10z"/>
<path d="M70 1959 c0 -5 5 -7 10 -4 6 3 10 8 10 11 0 2 -4 4 -10 4 -5 0 -10
-5 -10 -11z"/>
<path d="M817 1933 c-12 -11 -8 -23 8 -23 8 0 15 7 15 15 0 16 -12 20 -23 8z"/>
<path d="M0 1893 c0 -32 1 -33 38 -27 45 7 52 11 52 30 0 20 -46 18 -55 -3 -6
-16 -8 -15 -20 7 l-14 25 -1 -32z"/>
<path d="M590 1889 c0 -5 5 -7 10 -4 6 3 10 8 10 11 0 2 -4 4 -10 4 -5 0 -10
-5 -10 -11z"/>
<path d="M749 1879 c14 -14 28 -18 39 -13 15 6 15 8 -3 12 -11 2 -24 8 -29 13
-6 5 -14 9 -20 9 -5 0 0 -9 13 -21z"/>
<path d="M603 1865 c-3 -9 -3 -19 1 -22 7 -7 36 16 36 28 0 15 -30 10 -37 -6z"/>
<path d="M710 1830 c0 -5 5 -10 11 -10 5 0 7 5 4 10 -3 6 -8 10 -11 10 -2 0
-4 -4 -4 -10z"/>
<path d="M250 1821 c0 -5 5 -13 10 -16 6 -3 10 -2 10 4 0 5 -4 13 -10 16 -5 3
-10 2 -10 -4z"/>
<path d="M470 1820 c0 -5 4 -10 9 -10 6 0 13 5 16 10 3 6 -1 10 -9 10 -9 0
-16 -4 -16 -10z"/>
<path d="M590 1800 c-11 -8 -7 -9 15 -4 20 4 27 3 20 -3 -14 -14 -78 -26 -70
-13 3 6 1 10 -4 10 -6 0 -11 -3 -11 -8 0 -12 39 -42 55 -42 8 0 15 -4 15 -10
0 -5 6 -10 14 -10 9 0 13 8 9 23 -4 20 -3 20 17 -5 25 -33 60 -38 60 -9 0 11
5 23 10 26 18 11 10 35 -16 47 -20 9 -27 9 -33 -1 -6 -9 -11 -10 -15 -2 -9 14
-46 14 -66 1z"/>
<path d="M790 1791 c0 -14 29 -21 36 -9 4 7 3 8 -4 4 -7 -4 -12 -2 -12 3 0 6
-4 11 -10 11 -5 0 -10 -4 -10 -9z"/>
<path d="M840 1764 c0 -15 26 -19 34 -5 3 5 -3 11 -14 14 -13 3 -20 0 -20 -9z"/>
<path d="M835 1730 c-4 -6 -2 -10 3 -10 5 0 17 -15 26 -34 12 -26 21 -33 36
-29 17 5 17 7 5 20 -8 8 -15 20 -15 27 0 17 -47 39 -55 26z"/>
<path d="M3028 1563 c7 -3 16 -2 19 1 4 3 -2 6 -13 5 -11 0 -14 -3 -6 -6z"/>
<path d="M835 780 c-3 -5 -2 -10 4 -10 5 0 13 5 16 10 3 6 2 10 -4 10 -5 0
-13 -4 -16 -10z"/>
<path d="M250 736 c0 -2 7 -9 15 -16 9 -7 15 -8 15 -2 0 5 -7 12 -15 16 -8 3
-15 4 -15 2z"/>
<path d="M1030 675 c0 -8 3 -15 8 -16 4 0 17 -2 30 -3 25 -3 30 19 6 28 -27
10 -44 7 -44 -9z"/>
<path d="M675 650 c-3 -5 -1 -10 4 -10 6 0 11 5 11 10 0 6 -2 10 -4 10 -3 0
-8 -4 -11 -10z"/>
<path d="M763 177 c3 -9 2 -19 -3 -22 -16 -10 -11 -25 5 -19 18 7 20 40 3 50
-8 5 -9 2 -5 -9z"/>
</g>
</svg>
